{"title":"THE SECOND ARRIVAL.DEWSTRR","uid":4850800,"size":1175543173,"categoryP":"video","categoryS":"movies","magnet":"?xt=urn:btih:a18a320371d3ac9c3da66c28157e8b17e35f04ad&amp;dn=THE+SECOND+ARRIVAL.DEWSTRR&amp;tr=udp%3A%2F%2Ftracker.openbittorrent.com%3A80&amp;tr=udp%3A%2F%2Fopen.demonii.com%3A1337&amp;tr=udp%3A%2F%2Ftracker.coppersurfer.tk%3A6969&amp;tr=udp%3A%2F%2Fexodus.desync.com%3A6969","seeders":4,"leechers":1,"uploader":"dewstrr505","files":15,"time":1239864595,"description":"THE SECOND ARRIVAL\n\nAction | Adventure | Sci-Fi | Thriller\n\nAfter Zane Ziminski is found dead in Alaska five people receive envelopes that he had sent in case of his death with details of an alien invasion. This group of five includes 3 scientists, Zane's brother Jack, and a reporter.They all meet in a meat locker where it is cold because the aliens who are manufacturing global warming cannot stand the cold for long but the aliens sneak a mole in who takes the cold for a while and then loses his disguise and dies but not before un leashing a small sphere that opens and sucks in everything inside it within a certian radius, Quickly the group is down to three and then Jack and Bridget, the reporter. With a small piece of alien technology escape only to be tracked down by more aliens who destroy their lives by deleting their credit and other things of their identy,some how Jack and Bridgit find a way to make the small perimid work with industrial lasers and foil the aliens plan of making a nucular reactor melt down that would have accelerated global warming 10 fold \n\n[IMG]http://i203.photobucket.com/albums/aa38/476352oop/MOVIES/TA2CP.jpg[/IMG]\n &lt;a href=&quot;\nhttp://www.imdb.com/title/tt0122961/&quot; rel=&quot;nofollow&quot; target=&quot;_NEW&quot;&gt;\nhttp://www.imdb.com/title/tt0122961/&lt;/a&gt;\n\nFormat :      AVI\nFormat/Info :     Audio Video Interleave\nFile size :     1.09 GiB\nDuration :     1h 45mn\nOverall bit rate :     1 490 Kbps\nWriting application :     VirtualDubMod 1.5.4.1 (build 2178/release)\nWriting library :     VirtualDubMod build 2178/release\n\nVideo\nFormat :     MPEG-4 Visual\nFormat settings, BVOP :     Yes\nFormat settings, QPel :     No\nFormat settings, GMC :     No warppoints\nFormat settings, Matrix :     Default\nCodec ID :     DX50\nCodec ID/Hint :     DivX 5\nDuration :     1h 45mn\nBit rate :     1 035 Kbps\nWidth :     640 pixels\nHeight :     352 pixels\nDisplay aspect ratio :     16/9\nFrame rate :     23.976 fps\nResolution :     24 bits\nColorimetry :     4:2:0\nScan type :     Progressive\nBits/(Pixel*Frame) :     0.192\nStream size :     779 MiB (69%)\nWriting library :     DivX 2816\n\nAudio\nFormat :     AC-3\nFormat/Info :     Audio Coding 3\nCodec ID :     2000\nDuration :     1h 45mn\nBit rate mode :     Constant\nBit rate :     448 Kbps\nChannel(s) :     6 channels\nChannel positions :     Front: L C R, Surround: L R, LFE\nSampling rate :     48.0 KHz\nStream size :     337 MiB (30%)\nAlignment :     Split accross interleaves\nInterleave, duration :     96 ms (2.30 video frames)\nInterleave, preload duration :     96 ms\n\nGeneral\nComplete name : THE SECOND ARRIVALTA 2 1.sfv\nFile size :     1.58 KiB\n\nGeneral\nComplete name : THE SECOND\nFile size :     47.0 Bytes\n[IMG]http://i203.photobucket.com/albums/aa38/476352oop/MOVIES/TA21.jpg[/IMG]\n[IMG]http://i203.photobucket.com/albums/aa38/476352oop/MOVIES/TA22.jpg[/IMG]\n[IMG]http://i203.photobucket.com/albums/aa38/476352oop/MOVIES/TA23.jpg[/IMG]\n[IMG]http://i203.photobucket.com/albums/aa38/476352oop/MOVIES/TA24.jpg[/IMG]\n[IMG]http://i203.photobucket.com/albums/aa38/476352oop/MOVIES/TA25.jpg[/IMG]\n[IMG]http://i203.photobucket.com/albums/aa38/476352oop/MOVIES/TA26.jpg[/IMG]\n[IMG]http://i203.photobucket.com/albums/aa38/476352oop/MOVIES/TA27.jpg[/IMG]\n[IMG]http://i203.photobucket.com/albums/aa38/476352oop/MOVIES/TA28.jpg[/IMG]\n[IMG]http://i203.photobucket.com/albums/aa38/476352oop/MOVIES/TA29.jpg[/IMG]\n[IMG]http://i203.photobucket.com/albums/aa38/476352oop/MOVIES/TA210.jpg[/IMG]\nburned with windows [with a couple of other movies on a disk] and played on my philips divx ultra certified dvd player\nbe sure to set your dvd player on the correct aspect ratio\n\n\n\n","torrent":{"xt":"urn:btih:a18a320371d3ac9c3da66c28157e8b17e35f04ad","amp;dn":"THE+SECOND+ARRIVAL.DEWSTRR","amp;tr":["udp%3A%2F%2Ftracker.openbittorrent.com%3A80","udp%3A%2F%2Fopen.demonii.com%3A1337","udp%3A%2F%2Ftracker.coppersurfer.tk%3A6969","udp%3A%2F%2Fexodus.desync.com%3A6969"],"infoHash":"a18a320371d3ac9c3da66c28157e8b17e35f04ad","infoHashBuffer":{"type":"Buffer","data":[161,138,50,3,113,211,172,156,61,166,108,40,21,126,139,23,227,95,4,173]},"announce":[],"urlList":[]}}